<svg width="15" height="21" viewBox="0 0 15 21" fill="none" xmlns="http://www.w3.org/2000/svg">
<path d="M10.5385 4.03846V6.73684H4.46153V4.03846C4.46153 2.36036 5.8219 1 7.49999 1C9.17809 1 10.5385 2.36037 10.5385 4.03846Z" stroke="#2DD06D" stroke-width="2"/>
<rect x="5.76921" y="6.63158" width="3.46154" height="1.10526" fill="#E5E5E5"/>
<path d="M3 6.27632H12C13.2426 6.27632 14.25 7.28368 14.25 8.52632V14.8947C14.25 17.2419 12.3472 19.1447 10 19.1447H5C2.65279 19.1447 0.75 17.2419 0.75 14.8947V8.52632C0.75 7.28368 1.75736 6.27632 3 6.27632Z" stroke="#2DD06D" stroke-width="1.5"/>
<path d="M5.27204 12.0872C5.12145 11.9545 4.87826 11.9545 4.72768 12.0872C4.57796 12.2198 4.57796 12.4357 4.72768 12.5683L6.65068 14.2689C6.80127 14.4016 7.04446 14.4016 7.19504 14.2689L11.4262 10.528C11.5759 10.3954 11.5759 10.1795 11.4262 10.0468C11.2756 9.91421 11.0324 9.91421 10.8818 10.0468L6.9233 13.5468L5.27204 12.0879V12.0872Z" fill="#2DD06D" stroke="#2DD06D"/>
</svg>
