<svg width="19" height="19" viewBox="0 0 19 19" fill="none" xmlns="http://www.w3.org/2000/svg">
<path fill-rule="evenodd" clip-rule="evenodd" d="M11.6111 0C12.7775 0 13.7222 0.944722 13.7222 2.11111V4.22222H15.8333C17.5824 4.22222 19 5.63983 19 7.38889V13.7222C19 15.4713 17.5824 16.8889 15.8333 16.8889H3.16667C1.41761 16.8889 0 15.4713 0 13.7222V7.38889C0 5.63983 1.41761 4.22222 3.16667 4.22222H5.27778V2.11111C5.27778 0.944722 6.2225 0 7.38889 0H11.6111ZM15.8333 6.52544H3.16667C2.62517 6.52544 2.17867 6.93289 2.1185 7.4575L2.11111 7.581V13.5301C2.11111 14.0716 2.51856 14.5181 3.04317 14.5783L3.16667 14.5857H15.8333C16.3748 14.5857 16.8213 14.1782 16.8815 13.6536L16.8889 13.5301V7.581C16.8889 6.99833 16.416 6.52544 15.8333 6.52544ZM10.5556 2.11111H8.44444C7.90294 2.11111 7.45644 2.51856 7.39628 3.04317L7.38889 3.16667V4.22222H11.6111V3.16667C11.6111 2.62517 11.2037 2.17867 10.6791 2.1185L10.5556 2.11111ZM3.16667 16.8889H6.33333V17.9444C6.33333 18.5271 5.86044 19 5.27778 19H4.22222C3.63956 19 3.16667 18.5271 3.16667 17.9444V16.8889ZM12.6667 16.8889H15.8333V17.9444C15.8333 18.5271 15.3604 19 14.7778 19H13.7222C13.1396 19 12.6667 18.5271 12.6667 17.9444V16.8889Z" fill="#2DD06D"/>
<path d="M7.5691 10.936C7.43859 10.816 7.22783 10.816 7.09732 10.936C6.96756 11.056 6.96756 11.2513 7.09732 11.3713L8.76392 12.91C8.89443 13.03 9.10519 13.03 9.2357 12.91L12.9027 9.52533C13.0324 9.40533 13.0324 9.21 12.9027 9.09C12.7722 8.97 12.5614 8.97 12.4309 9.09L9.00019 12.2567L7.5691 10.9367V10.936Z" fill="#2DD06D" stroke="#2DD06D"/>
</svg>
