<svg width="18" height="18" viewBox="0 0 18 18" fill="none" xmlns="http://www.w3.org/2000/svg">
<path fill-rule="evenodd" clip-rule="evenodd" d="M11 0C12.105 0 13 0.895 13 2V4H15C16.657 4 18 5.343 18 7V13C18 14.657 16.657 16 15 16H3C1.343 16 0 14.657 0 13V7C0 5.343 1.343 4 3 4H5V2C5 0.895 5.895 0 7 0H11ZM15 6.182H3C2.487 6.182 2.064 6.568 2.007 7.065L2 7.182V12.818C2 13.331 2.386 13.754 2.883 13.811L3 13.818H15C15.513 13.818 15.936 13.432 15.993 12.935L16 12.818V7.182C16 6.63 15.552 6.182 15 6.182ZM10 2H8C7.487 2 7.064 2.386 7.007 2.883L7 3V4H11V3C11 2.487 10.614 2.064 10.117 2.007L10 2ZM3 16H6V17C6 17.552 5.552 18 5 18H4C3.448 18 3 17.552 3 17V16ZM12 16H15V17C15 17.552 14.552 18 14 18H13C12.448 18 12 17.552 12 17V16Z" fill="#7D7D7D"/>
<path d="M10.3134 7.6364L6.6364 11.3134C6.28492 11.6648 6.28492 12.2347 6.6364 12.5861C6.98787 12.9376 7.55772 12.9376 7.90919 12.5861L11.5861 8.90919C11.9376 8.55772 11.9376 7.98787 11.5861 7.6364C11.2347 7.28492 10.6648 7.28492 10.3134 7.6364Z" fill="#7D7D7D"/>
<path d="M6.65152 8.92394L10.4159 12.5114C10.7757 12.8543 11.3454 12.8406 11.6883 12.4808C12.0312 12.1209 12.0175 11.5513 11.6577 11.2083L7.89333 7.6209C7.53351 7.27799 6.96382 7.29169 6.62091 7.65152C6.27799 8.01134 6.2917 8.58103 6.65152 8.92394Z" fill="#7D7D7D"/>
</svg>
