<svg width="18" height="18" viewBox="0 0 18 18" fill="none" xmlns="http://www.w3.org/2000/svg">
<path d="M7.09437 11.953L7.46399 12.3174L7.81434 11.9344L13.5363 5.67953C13.5364 5.67947 13.5365 5.67941 13.5365 5.67935C13.552 5.66254 13.5676 5.65764 13.5807 5.65731C13.5936 5.65698 13.6093 5.66101 13.6255 5.67672C13.6416 5.69287 13.6534 5.71767 13.6542 5.74882C13.655 5.78022 13.6443 5.80576 13.6289 5.82271C13.6288 5.82274 13.6288 5.82277 13.6288 5.8228L7.51297 12.508C7.5129 12.5081 7.51284 12.5082 7.51277 12.5082C7.49726 12.525 7.48169 12.5299 7.46866 12.5302C7.45564 12.5306 7.43985 12.5265 7.42351 12.5105C7.42343 12.5105 7.42335 12.5104 7.42327 12.5103L4.49245 9.61797C4.47612 9.60183 4.46407 9.57685 4.46326 9.54538C4.46247 9.51424 4.473 9.48886 4.48823 9.47191C4.50364 9.45539 4.51909 9.45057 4.53203 9.45023C4.54258 9.44996 4.55494 9.45259 4.56794 9.46207L4.57689 9.4709L7.09437 11.953Z" fill="#E5E5E5" stroke="#7D7D7D"/>
<circle cx="9" cy="9" r="8.5" stroke="#7D7D7D"/>
</svg>
